<?xml version="1.0" standalone="no"?>
<!DOCTYPE svg PUBLIC "-//W3C//DTD SVG 1.1//EN" "http://www.w3.org/Graphics/SVG/1.1/DTD/svg11.dtd" >
<svg xmlns="http://www.w3.org/2000/svg" xmlns:xlink="http://www.w3.org/1999/xlink" version="1.1" viewBox="-10 0 313 300">
   <path fill="currentColor"
d="M70 166q18 0 32.5 8.5t23 23t8.5 32t-8.5 32t-23 23t-32.5 8.5h-51q-5 0 -8.5 -3.5t-3.5 -8.5v-51q0 -18 8.5 -32.5t23 -23t31.5 -8.5zM230 166q17 0 31.5 8.5t23 23t8.5 32t-8.5 32t-23 23t-31.5 8.5h-52q-5 0 -8.5 -3.5t-3.5 -8.5v-51q0 -18 8.5 -32.5t23 -23
t32.5 -8.5zM70 190q-16 0 -28 11.5t-12 28.5v40h40q17 0 28.5 -12t11.5 -28.5t-11.5 -28t-28.5 -11.5zM230 190q-17 0 -28.5 11.5t-11.5 28.5v40h40q16 0 28 -12t12 -28.5t-12 -28t-28 -11.5zM70 7q18 0 32.5 8.5t23 23t8.5 32t-8.5 32t-23 23t-32.5 8.5h-51q-5 0 -8.5 -3.5
t-3.5 -8.5v-52q0 -17 8.5 -31.5t23 -23t31.5 -8.5zM230 7q17 0 31.5 8.5t23 23t8.5 32t-8.5 32t-23 23t-31.5 8.5h-52q-5 0 -8.5 -3.5t-3.5 -8.5v-52q0 -17 8.5 -31.5t23 -23t32.5 -8.5zM70 30q-16 0 -28 12t-12 28v40h40q17 0 28.5 -11.5t11.5 -28t-11.5 -28.5t-28.5 -12z
M230 30q-17 0 -28.5 12t-11.5 28v40h40q16 0 28 -11.5t12 -28t-12 -28.5t-28 -12z" />
</svg>
