<?xml version="1.0" standalone="no"?>
<!DOCTYPE svg PUBLIC "-//W3C//DTD SVG 1.1//EN" "http://www.w3.org/Graphics/SVG/1.1/DTD/svg11.dtd" >
<svg xmlns="http://www.w3.org/2000/svg" xmlns:xlink="http://www.w3.org/1999/xlink" version="1.1" viewBox="-10 0 313 300">
   <path fill="currentColor"
d="M103 14q4 -4 9.5 -5.5t10.5 0.5l121 32q5 2 9 6t6 9l32 121q2 5 0.5 10.5t-5.5 9.5l-89 89q-4 4 -9.5 5.5t-10.5 -0.5l-121 -32q-5 -2 -9 -6t-6 -9l-33 -124q-2 -4 -0.5 -8t4.5 -7zM55 96l105 -22q7 -1 11 3.5t3 10.5l-34 127q-2 7 -8 8.5t-11 -2.5l-81 -72l23 88l119 31
l86 -86l-31 -119l-119 -31zM44 122l78 69l24 -90z" />
</svg>
